<svg height="45" viewBox="0 0 45 45" width="45" xmlns="http://www.w3.org/2000/svg"><g fill="#f9253f" transform="translate(0 5)"><path d="m3.046 7.434a3.498 3.498 0 0 0 -2.622 4.17l2.656 12.04v-6.36l-1.317-5.989a2.126 2.126 0 0 1 1.588-2.54l.294-.065c.386-.72.947-1.33 1.633-1.773zm32.807-6.014a2.112 2.112 0 0 1 2.509 1.609l.685 3.132h1.403l-.756-3.423a3.447 3.447 0 0 0 -4.135-2.648l-26.879 6.071h6.209l20.964-4.74z"/><path d="m40.73 7.53h-32.857a3.423 3.423 0 0 0 -3.422 3.423v19.852a3.423 3.423 0 0 0 3.422 3.423h32.859a3.423 3.423 0 0 0 3.423-3.423v-19.852a3.423 3.423 0 0 0 -3.425-3.423zm-32.857 1.37h32.859c1.134 0 2.053.919 2.053 2.053v1.027h-36.965v-1.027c0-1.134.92-2.054 2.053-2.054zm32.859 23.958h-32.86a2.054 2.054 0 0 1 -2.053-2.053v-17.456h36.965v17.456c0 1.134-.919 2.053-2.053 2.053z"/><path d="m11.98 17.456h24.643a.685.685 0 1 0 0-1.37h-24.643a.685.685 0 0 0 0 1.37zm4.107 9.584h-7.53a.685.685 0 1 0 0 1.369h7.53a.685.685 0 1 0 0-1.37zm8.215-4.45a2.694 2.694 0 0 0 -2.739 2.643c0 .649.244 1.275.685 1.752l-.483 3.423a.969.969 0 0 0 .952 1.092h3.159a.969.969 0 0 0 .732-.343.941.941 0 0 0 .22-.75l-.473-3.422a2.58 2.58 0 0 0 .685-1.752 2.694 2.694 0 0 0 -2.738-2.643zm1.109 7.53h-2.218l.516-3.68-.304-.242a1.236 1.236 0 0 1 -.473-.965 1.37 1.37 0 0 1 2.739 0c-.004.376-.18.73-.476.961l-.305.243.52 3.683z"/><circle cx="40.046" cy="16.771" r="1"/><circle cx="8.557" cy="16.771" r="1"/><path d="m40.046 24.986h-5.476a.685.685 0 0 0 -.685.685v4.107c0 .378.307.684.685.684h5.476a.685.685 0 0 0 .685-.684v-4.108a.685.685 0 0 0 -.685-.685zm-.684 4.107h-4.108v-2.738h4.108z"/></g></svg>