<svg height="45" viewBox="0 0 45 45" width="45" xmlns="http://www.w3.org/2000/svg"><g fill="#f9253f"><path d="m23.863 36.788a1.459 1.459 0 0 0 -.173-.204 1.366 1.366 0 0 0 -1.231-.373c-.09.016-.178.042-.262.076-.083.034-.16.077-.233.128a1.366 1.366 0 0 0 .495 2.477c.087.018.175.028.264.028a1.37 1.37 0 0 0 .958-.402c.063-.063.121-.131.172-.204.048-.075.09-.154.125-.236.034-.082.06-.168.076-.256.018-.088.028-.178.029-.268 0-.09-.01-.18-.029-.268a1.277 1.277 0 0 0 -.076-.255 1.656 1.656 0 0 0 -.115-.243zm-1.666-26.604c.085.033.172.058.262.077.087.018.175.028.264.028a1.37 1.37 0 0 0 .958-.402c.063-.063.121-.13.172-.204.048-.075.09-.154.125-.236.034-.082.06-.168.076-.256.018-.088.028-.178.029-.268 0-.09-.01-.18-.029-.268a1.277 1.277 0 0 0 -.076-.255 1.666 1.666 0 0 0 -.125-.236 1.455 1.455 0 0 0 -.172-.204 1.366 1.366 0 0 0 -1.232-.374 1.299 1.299 0 0 0 -.495.204 1.366 1.366 0 0 0 0 2.272c.077.049.158.09.243.122zm13.994 13.976c.098.152.228.282.38.38.074.049.152.092.233.127.085.033.173.058.262.077.087.018.176.028.265.028a1.372 1.372 0 0 0 1.369-1.369c0-.09-.01-.18-.029-.268a1.277 1.277 0 0 0 -.076-.255 1.672 1.672 0 0 0 -.125-.236 1.449 1.449 0 0 0 -.613-.501 1.398 1.398 0 0 0 -1.05 0 1.42 1.42 0 0 0 -.233.127 1.063 1.063 0 0 0 -.21.17 1.41 1.41 0 0 0 -.297.44 1.672 1.672 0 0 0 -.077.255 1.34 1.34 0 0 0 -.028.268c0 .09.01.18.028.268.019.087.045.173.077.256.034.08.076.159.124.233zm-28.598-2.024c-.082.035-.16.078-.233.128a1.063 1.063 0 0 0 -.211.169 1.376 1.376 0 0 0 -.402.957c0 .09.01.18.029.269.018.087.044.172.076.255.036.082.079.16.128.236a1.366 1.366 0 0 0 2.103.204c.064-.062.121-.13.172-.204.048-.075.09-.154.125-.236a1.37 1.37 0 0 0 -1.52-1.851c-.09.017-.18.041-.267.073zm8.933-6.268a1.436 1.436 0 0 0 -.374 2.004l5.107 7.45a1.663 1.663 0 0 0 2.211.414l4.484-3.076a1.436 1.436 0 1 0 -1.621-2.372l-3.437 2.352-4.385-6.399a1.436 1.436 0 0 0 -1.985-.373z"/><path d="m23.588.29a22.34 22.34 0 0 0 -10.442 1.982 1.277 1.277 0 0 0 1.063 2.32c8.93-4.085 19.505-1.047 24.904 7.156 5.4 8.203 4.008 19.118-3.276 25.705-7.284 6.586-18.284 6.875-25.903.68-7.62-6.196-9.582-17.023-4.62-25.498l.134.495a1.277 1.277 0 1 0 2.464-.667l-.958-3.543a1.277 1.277 0 0 0 -1.567-.897l-3.542.958a1.277 1.277 0 1 0 .667 2.464l.638-.176a22.34 22.34 0 1 0 20.426-10.985z"/></g></svg>