<svg height="565" viewBox="0 0 416 565" width="416" xmlns="http://www.w3.org/2000/svg"><path d="m121.8312 221.589147h-2.181116c-3.038994 0-5.681597 3.55814-5.681597 7.643411v10.147287c6.738638-2.108527 12.684496-1.844961 17.441182-.922481v-5.555754c-1.138452.696775-2.47716 1.09839-3.909669 1.09839-4.142136 0-7.5-3.357864-7.5-7.5 0-1.878171.690375-3.595096 1.8312-4.910853zm70.116987-.131783h-2.60117c-3.038993 0-5.681597 3.55814-5.681597 7.643411v9.356589c4.624556-1.054263 10.702544-1.449612 17.441182.395349v-5.775218c-1.070143.588034-2.299313.922505-3.606602.922505-4.142136 0-7.5-3.357864-7.5-7.5 0-1.941531.73774-3.710754 1.948187-5.042636zm162.623832 194.239881 6.910197-31.125935c.39673-1.707273 2.115892-2.889232 3.967297-2.495245l9.389271 1.969931c.793459.131328 1.586919.656643 2.115892 1.444616.528973.787972.661216 1.575944.396729 2.495246-.528973 2.495246.264487 2.626574 1.19019 2.889232.661216.131329 1.190189.131329 1.586919 0 .396729-.262658.925702-1.05063 1.057946-1.969931.396729-1.707274 2.115891-2.889232 3.967297-2.495246l9.257027 1.969931c1.719162.393986 2.909352 2.10126 2.512622 3.939862l-1.980643 9.362662 6.651822-2.497652c.788463-.265039 1.708336-.265039 2.496799.13252.788463.39756 1.445516 1.06016 1.708337 1.855279l3.022441 8.481274c.657053 1.722759-.262821 3.578038-1.971157 4.240637-.525642.13252-1.051284.6626-1.445516 1.192679-.13141.13252-.262821.6626.131411 1.722759.657052 1.590239 1.182694 1.987799 3.022441 1.325199.788463-.26504 1.708337-.26504 2.4968.13252s1.445515 1.060159 1.708336 1.855279l3.022441 8.481274c.657053 1.722759-.262821 3.578037-1.971157 4.240637l-45.092934 17.052609c.224537.351579.454179.703938.689094 1.057015 1.053689 1.561995.658556 3.514489-.921977 4.555819-1.580532 1.04133-3.556198.520665-4.609886-.911164-6.980686-10.283134-9.614907-19.915437-11.722283-27.595245-.389648-1.251504-.707252-2.503008-1.059377-3.701853-.379173-.353715-.686428-.802338-.885316-1.323814-.153675-.402926-.221088-.813101-.212328-1.213571-1.220134-1.39162-3.16149-1.050073-3.374843-1.050073-.658555.130167-2.897643.780998-2.634221 3.254157.131711.260332.131711.650831.263422 1.04133.131711.130166.131711.260332.131711.390498.131711.390499 1.448822 9.371971 1.1854 13.667457-.131711.911164-.395133 1.822328-1.053689 2.603325-7.375818 9.37197-3.029354 15.229452-2.897643 15.489784.921978 1.171496.921978 2.863658 0 4.035154l-7.770951 9.632303c-.658555.780997-1.712244 1.171496-2.634221 1.171496-.790266 0-1.448821-.130166-2.107377-.650831-1.31711-1.04133-1.580532-3.12399-.131711-4.685985l6.32213-7.809976c-1.712243-3.514488-3.424487-11.064131 3.819621-20.696434 0-3.12399-.658556-9.241804-1.053689-11.714962-.263422-.650832-.395133-1.301663-.395133-1.952494-.395133-5.076484 2.765932-9.241804 7.902663-10.283134 3.059635-.622537 6.549656.152463 8.999796 2.491061zm10.909715 28.53598 43.209018-16.291689-.919874-2.782918c-3.679494.13252-6.570524-1.987798-8.14745-5.830876-.919874-2.385358-.919874-4.770716 0-6.891035.525642-1.192679 1.314105-2.120318 2.233978-3.047958l-1.051284-2.782918-8.235713 3.082115c-.595782.522174-1.377073.835406-2.220905.831147l-32.417671 12.131918c.21575.825729.433359 1.678099.679783 2.530468 1.502524 5.543632 3.309766 12.065983 6.870118 19.051746zm22.096037-39.785421 2.2045-10.289496-3.306082-.656644c-.661216 1.181959-1.586919 2.232589-2.909351 3.15189-1.322432.787973-3.438324 1.575945-6.612162.919301-3.835054-.919301-6.08319-3.677204-6.347676-7.354409l-3.306081-.656644-5.457625 24.548882zm-283.122656-157.029199c-.924911-1.581396-.39639-3.55814 1.189171-4.348838.660651-.395348 1.453432-.790697 2.114083-1.186046-.39639-.527132-.528521-1.054264-.528521-1.713178v-10.937985c0-7.906977 5.549467-14.232558 12.288106-14.232558h6.077987c6.738639 0 12.288106 6.457364 12.288106 14.232558v10.937985.263566c2.114082.790697 3.435384 1.581395 3.567514 1.713178 1.585562.92248 1.981953 2.899225 1.057041 4.48062-.924911 1.581395-2.906863 1.976744-4.492425 1.054264-.528521-.263566-13.477277-8.03876-29.068636.92248-.396391.263566-1.057042.395349-1.585562.395349-1.189172 0-2.246213-.527132-2.906864-1.581395zm104.182906 1.581395c-.52852 0-1.057041-.263566-1.585562-.395349-15.591359-9.093023-28.540115-1.317829-29.068636-.92248-1.453432.92248-3.567514.527131-4.492425-1.054264-.924912-1.449612-.528521-3.55814 1.057041-4.48062.13213 0 1.057041-.658915 2.642603-1.31783-.13213-.263566-.13213-.395348-.13213-.658914v-10.937985c0-7.906977 5.549467-14.232558 12.288105-14.232558h6.077988c6.738638 0 12.288105 6.457364 12.288105 14.232558v10.937985c0 .527131-.13213.92248-.26426 1.317829 1.057041.395349 1.981952.922481 2.906864 1.449612 1.585561.922481 2.114082 2.899225 1.189171 4.480621-.660651 1.054263-1.717692 1.581395-2.906864 1.581395zm-146.7592183-82.789509c-1.450982-.660115-2.2424267-2.376412-1.7147969-3.960687-.1319074-.396069-.1319074-.792138 0-1.188207.2638149-1.84832 1.9786118-3.036527 3.825316-2.640458.3957224.132023 43.5294582 7.921375 87.1908232-37.362484 1.187167-1.32023 3.297686-1.452252 4.616761-.132023 1.319074 1.188206 1.450982 3.300573.131907 4.620802-11.080226 11.618016-22.292359 19.93546-32.713047 25.876491 14.773634 4.224733 58.434999 12.542176 106.845033-15.446681 1.582889-.924161 3.561501-.396069 4.484853 1.188206s.395722 3.564619-1.187167 4.488779c-28.623916 16.502864-55.269221 20.991643-75.97869 20.991643-24.534785 0-40.759401-6.3371-41.946568-6.865191-.131908 0-.263815 0-.395723-.132023-17.5436904 8.185421-32.7130469 9.901718-42.0784757 9.901718-.2638149 0-.5276298 0-.7914447 0 7.9144469 7.393284 18.0713204 23.368056 10.5525958 52.941189-.3957223 1.452252-1.7147968 2.508435-3.1657787 2.508435-.2638149 0-.5276298 0-.7914447-.132023-1.7147968-.396069-2.7700564-2.244389-2.3743341-3.960687 10.0249661-39.078783-13.4545597-50.30073-14.5098192-50.696799zm130.6600793 133.660901c.926886 1.559835.397237 3.509628-1.059298 4.419532-10.592984 6.369324-20.788732 8.709076-29.792768 8.709076-21.84803 0-37.340269-13.258594-37.605094-13.38858-1.324123-1.169876-1.456535-3.249655-.264825-4.549518 1.191711-1.299862 3.310308-1.429848 4.634431-.259972 1.059298.909904 27.674171 23.397519 59.585536 4.029573 1.456535-.909904 3.575132-.519945 4.502018 1.039889zm200.831753 141.658319c4.998549-1.225742 7.497824-1.794836 7.497824-1.707283-4.647774 13.920925-6.971661 20.925164-6.971661 21.012717-1.71003 3.677225-4.867009 6.566473-9.602477 8.011098-.263082 0-22.888096 1.575954-32.227491 13.526936 0 0-2.367734 3.151908-4.735468 6.172486-1.183867 1.707283-2.499275 3.283237-3.156979 4.596532.789245.525317 1.315408 1.313294 1.315408 2.232601 0 .919306-.263082 1.838612-.789245 2.49526-1.578489 1.838613-38.278367 45.571329-64.323441 65.008092-4.209305 3.151908-9.207855 4.727862-14.206404 4.727862-4.472387 0-8.944773-1.313295-12.890997-3.939885-11.444048-7.748439-20.25728-21.012717-26.045074-34.539653 0 12.082312 0 24.689942.263081 35.590289 0 1.707283-1.446948 3.283237-3.288519 3.283237s-3.28852-1.444624-3.28852-3.283237c-.263081-7.748439-.657703-35.196301-.13154-56.734335-.131541-.656648 0-1.181966.13154-1.707283.394623-11.425665 1.183868-20.750058 2.499275-23.507977.789245-1.575954 2.630816-2.363931 4.340846-1.575954 1.578489.787977 2.367734 2.626589 1.578489 4.333873-.920785 1.969942-1.446948 10.637688-1.841571 22.326011 4.735469 24.164625 18.152628 42.550752 29.465135 50.167862 5.919335 3.939884 13.811782 3.677225 19.599576-.656648 21.83577-16.284855 52.616312-51.481156 61.034922-61.330867l-18.021087-13.526936c-6.182416 3.414566-26.439696 15.234219-41.303805 28.892485-.13154.262659-1.578489 1.575954-2.893897 2.889249-1.183867 1.181965-2.236193 2.232601-2.367734 2.36393-1.315408 1.313295-3.42006 1.181966-4.603927-.131329s-1.183867-3.414567.131541-4.596532c.263081-.262659 1.183867-1.181965 2.893897-2.889248-9.207855-88.910058-35.121388-91.142659-43.671539-91.930636-5.13009-.525318-9.076314-.919307-13.5487-1.575954-4.077764 14.052254-12.496374 24.821272-24.729667 31.256416-8.155528 4.333873-18.021087 6.566474-28.281268 6.566474-3.288519 0-6.577039-.131329-9.997099-.656647-12.496374-1.707283-24.071962-6.435145-32.622113-13.395607-8.287069-6.697804-13.154078-14.971561-14.074864-23.770636-4.9985492.787977-7.8924464 1.050636-12.890996 1.444624l-1.9731117.13133c-12.3648333 1.050636-33.4113581 19.305433-35.252929 128.70289 0 1.838613-1.4469486 3.283237-3.2885195 3.283237s-3.2885195-1.444624-3.2885195-3.283237c1.3154078-87.465434 15.2587305-132.905434 41.1722641-135.138035l1.9731117-.131329c5.9193351-.525318 8.5501507-.787977 14.9956489-1.838613l1.578489-.262659c2.762357-.393988 5.261632-1.050636 7.629366-1.969942 5.919335-2.232601 10.12864-2.363931 13.022537-.262659.394622.262659.789244.656647 1.183867 1.050636 2.762356-11.688324 2.499275-32.569711-2.236193-50.036532-8.681692-.525318-16.442598-1.313295-22.756555-2.101272-19.5995766-2.36393-34.2006031-20.09341-33.2798177-40.31815.3946224-9.061734 1.4469486-18.648786 2.3677341-27.84185.3946223-3.283237.6577039-6.697803 1.0523262-10.11237-3.8146826-.919306-16.9687606-4.99052-20.5203616-23.245318-.6577039.787977-1.5784894 1.181966-3.025438 1.181966-.6577039-.13133-18.0210868-3.151908-26.9658598-17.466821-.3946224-.525318-.7892447-1.181965-1.0523263-1.575954-.6577039.656648-1.4469485 1.050636-2.367734 1.050636-.7892447 0-1.5784894-.262659-2.2361932-.919306-20.12573935-19.042775-21.04652481-43.470058-15.2587305-59.886243 5.26163119-15.10289 16.3110567-25.083931 28.67589-26.134567 1.8415709-.131329 3.4200603 1.181966 3.551601 3.020578.1315408 1.838613-1.183867 3.414567-3.0254379 3.545896-9.6024769.787977-18.6787907 9.324393-23.01963645 21.669365-4.73546808 13.789595-4.20930496 33.751676 10.91788475 50.167861-1.9731117-7.485781-1.5784894-16.022197 1.183867-25.477919.5261631-1.707283 2.367734-2.757919 4.0777642-2.232601 1.7100301.525318 2.7623563 2.36393 2.2361932 4.071213-3.4200603 11.819654-2.7623564 21.538035 1.9731117 29.155145 7.3662837 11.819653 22.3619326 14.446243 22.4934734 14.446243.5261631.131329.9207854.262659 1.3154077.525318 0-.656648-.1315407-1.313295-.1315407-1.969943 0-1.838612-.1315408-10.243699 0-12.213641.1315407-1.838613 1.5784893-3.151908 3.4200602-3.151908 1.841571.13133 3.1569788 1.575954 3.1569788 3.414567-.1315408 1.707283-.1315408 9.98104 0 11.556994.9207854 18.648786 11.8386701 22.982659 15.3902712 23.901965.7892447-9.455722 1.3154078-18.648786.7892447-27.316531-.1315408-1.707284 1.183867-3.283237 3.0254379-3.414567 1.7100301-.131329 3.2885195 1.181965 3.4200603 3.020578.9207854 14.183584-.7892447 29.811792-2.3677341 45.046012-.9207854 9.193063-1.9731117 18.648786-2.367734 27.447861-.7892447 16.678844 11.3125071 31.519075 27.4920229 33.489017 25.913534 3.151908 78.398305 6.303815 110.888877-2.49526 16.179516-4.333873 26.96586-20.618728 25.124289-37.691561-.394622-3.545895-.920785-8.273757-1.578489-13.658265-2.104652-16.678844-5.13009-41.894104-6.840121-65.533411-.13154-1.838613 1.183867-3.414566 3.025438-3.545896 1.841571-.131329 3.420061 1.181966 3.551601 3.020578.920786 12.082312 2.104653 24.689942 3.420061 36.378266 3.156978-.787977 21.441147-6.435144 21.309606-30.468439-.131541-5.647168-.263082-21.144046-.526163-23.901965-.394622 0-.920786 0-1.315408 0-6.445498 0-12.890996-1.575954-17.889546-4.596532-1.578489-.919307-1.973112-2.889249-1.052326-4.465203.920785-1.575953 2.893897-1.969942 4.472386-1.050635 5.787795 3.545896 14.337945 4.596531 21.704229 2.757919 4.603927-1.050636 10.786344-3.939885 14.864108-10.900347 1.183867-2.101272 4.867009-9.324393 5.919335-19.830752-4.998549 2.889249-11.575588 5.12185-20.388821 6.303815-1.578489 0-3.025438-1.181965-3.288519-2.757919-.263082-1.707283.920785-3.414566 2.762356-3.677225 32.885195-4.859191 32.359032-26.003237 32.09595-35.064971 0-.787977 0-1.444624 0-2.232601 0-1.444625.263082-14.577573.131541-19.568093-.263081-9.455722-6.708579-13.920925-14.732567-19.6994218-4.340846-3.1519075-8.813232-6.303815-12.759456-10.6376878-7.497824-8.2737573-13.811782-16.8101734-18.54725-25.7405781-16.047975-30.0744508-38.015285-30.9937572-49.722414-28.8924855-17.494924 3.1519075-31.175165 16.0221965-32.490573 25.740578-.263082 1.7072833-1.841571 3.0205781-3.683142 2.7579191-1.71003-.262659-3.025438-1.8386127-2.762356-3.6772254 1.71003-11.9509827 15.390271-24.5586128 31.438246-29.6804625-4.867009-7.8797688-20.651902-18.91144505-40.383019-19.04277453-18.021087 0-42.09305 9.71838153-55.773291 55.42104043 4.472387 8.0110983 7.629365 14.8402312 7.760906 15.2342197.657704 1.7072832 0 3.5458959-1.71003 4.3338728-1.71003.6566474-3.551601 0-4.340846-1.7072832-9.4709359-20.8813873-19.8626575-34.1456648-24.9927479-35.1963006l-16.705679 52.6631214c1.4469486 1.9699422 2.7623564 4.333873 4.0777642 6.829133.7892446 1.707283.1315407 3.677225-1.4469486 4.465202-1.7100301.787977-3.6831418.13133-4.4723865-1.444624-1.183867-2.363931-2.4992748-4.465202-3.8146826-6.435145-.6577039-.393988-1.0523263-1.0506354-1.3154078-1.7072828-4.0777642-5.3845086-8.5501507-8.6677456-13.5487004-9.9810404-5.2616311-1.3132948-9.7340177-.1313295-12.3648332.9193063 2.6308155 7.7484393 9.0763138 29.2864739 4.4723865 47.0159539-.3946224 1.575954-1.7100302 2.49526-3.9462234 2.363931-1.8415709-.525318-2.8938972-2.363931-2.3677341-4.071214 5.1300904-19.305434-5.1300904-45.4400004-5.2616312-45.7026593-.5261631-1.4446243 0-3.1519075 1.3154078-3.9398844.3946224-.262659 9.0763138-5.7784971 19.9941986-2.8892486 4.9985496 1.3132948 9.6024769 4.0712139 13.8117818 8.4050867l16.0479752-50.5618497c.2630815-.9193063 1.0523262-1.7072832 1.9731117-2.1012716 6.3139574-2.3639307 13.6802411 2.8892485 22.2303918 16.0221965 7.8924471-22.8513295 24.9927481-54.6330636 60.6402991-54.6330636 21.046525.13132948 41.040724 12.3449711 46.565436 23.9019653 22.756555-4.0712139 43.408458 7.7484393 56.562536 32.307052 4.472386 8.4050867 10.391721 16.5475145 17.626464 24.2959538 3.551601 3.8085549 7.760906 6.8291329 11.83867 9.7183815 8.41861 6.0411561 17.100302 12.2136414 17.494924 24.8212714.131541 4.990521-.131541 17.86081-.131541 20.093411v1.707283c.131541 6.041156.526163 20.22474-11.049425 30.599769-.131541 14.446242-4.99855 24.295953-7.103202 27.973179-4.209305 7.091792-10.654804 11.950983-18.941873 14.052254-.394622.13133-.789244.13133-1.052326.919307.394622 3.020578.526163 23.639306.526163 23.901965.131541 16.284855-7.234743 25.477919-13.417159 30.33711-6.70858 5.253179-13.41716 6.697803-13.811782 6.697803.920785 8.405087 1.841571 16.022197 2.630815 22.326012.657704 5.515838 1.183867 10.11237 1.57849 13.789595 2.236193 20.35607-10.523263 39.530174-29.859757 44.783353-7.892447 2.101271-16.83722 3.545896-26.308156 4.465202-4.603927 21.538035-4.867009 41.368786-1.183867 52.137804.394622-1.313295 1.052326-2.62659 2.104652-3.545896.920786-.787977 2.367734-1.575954 5.130091-1.181966l5.393172 1.838613c3.814682 1.181965 7.629365 2.101272 11.180966 2.62659 4.735468.656647 8.944773 1.181965 14.337945 1.707283 10.654803.919306 38.80453 3.545896 49.064711 92.981271 17.758005-15.234219 39.856856-27.316531 40.909182-27.841849 1.183867-.656648 2.499275-.525318 3.551601.262659l17.100302 12.870289c.920785-1.181966 2.236193-2.889249 3.551601-4.596532 2.367734-3.020578 4.603927-6.041156 4.735468-6.172486 10.391721-13.395607 32.753654-15.759537 36.436796-16.022196 1.841571-.787977 3.42006-2.232601 4.340846-4.071214zm-261.50307-23.901965c-.131541.393988-.526164.787977-1.052327 1.313294 5.130091 6.435145 14.732568 10.769018 23.940422 12.082313 16.705679 2.36393 27.360482-3.808555 33.279818-12.476301-9.339396-11.556994-7.892447-39.267514-3.420061-61.330867-8.155528.525318-16.705679.787977-24.992748.787977-8.813232 0-17.494924-.393989-25.650452-.787977 4.340846 18.517457 5.787794 49.248555-2.104652 60.411561zm20.125739 28.235838c20.651902 2.757919 47.22314-3.939885 56.036372-31.781734-2.367734-.525318-4.735468-1.181966-7.103202-1.969942l-2.104653-.656648c-3.025437 9.849711-9.076313 17.466821-17.626464 21.932023-5.919335 3.151908-12.890996 4.727862-20.125739 4.727862-2.367734 0-4.735468-.13133-7.103202-.525318-20.520362-2.889249-31.701328-14.971561-33.148277-26.397226-.920785.262659-1.973112.525318-3.288519 1.050636-2.104653.656647-4.340846 1.313295-6.577039 1.838613 1.315407 17.072832 21.572687 29.023815 41.040723 31.781734zm-1.536756 56.092426c1.837345 0 3.543452 1.439429 3.543452 3.271428 0 1.832-1.443629 3.271428-3.280974 3.271428h-54.4641751v10.730284h22.4418651c1.837345 0 3.280974 1.439428 3.280974 3.271428s-1.443629 3.271428-3.280974 3.271428h-22.573104c-.131239 14.52514-.6561949 26.956566-.6561949 27.087423-.131239 1.701143-1.5748677 3.140571-3.2809744 3.140571h-.131239c-1.8373456-.130857-3.2809743-1.570285-3.1497354-3.402285.9186729-24.601138 1.3123898-65.690273-1.5748677-71.971415-.7874338-1.570285-.1312389-3.533142 1.5748677-4.318285 1.5748677-.785142 3.5434524 0 4.3308862 1.570286 1.0499118 2.093714 2.3623016 7.066284 2.7560185 24.077709zm3.68661-88.092072c-1.717152-.710039-2.509684-2.840155-1.98133-4.686256.792532-1.704093 2.641773-2.556139 4.358926-1.8461 0 0 3.038038 1.278069 5.8119 0 1.717152-.852047 3.698482 0 4.358925 1.8461.792532 1.846101 0 3.976217-1.717152 4.686256-1.849241.852047-3.698482 1.136062-5.283546 1.136062-2.90595 0-5.151457-.994054-5.547723-1.136062z" fill="#e5e5e5" transform="matrix(-1 0 0 1 416 0)"/></svg>