<svg height="347" viewBox="0 0 602 347" width="602" xmlns="http://www.w3.org/2000/svg"><path d="m514.803688 35.2429265c.47856-.4561869 1.132318-.7333868 1.86228-.7333868h11.237841c1.81946-4.45957 6.20757-7.4326166 11.237842-7.4326166 4.923244 0 9.311354 3.0792269 11.237841 7.4326166h26.649738 1.391352c1.498379 0 2.568649 1.2741629 2.568649 2.7606862 0 1.4865234-1.177297 2.654506-2.675676 2.654506-.784865 0-1.177298 0-1.177298 0-18.765411 0-28.148117 0-28.148117 0-.107027.1061802-.321081.1061802-.535135.1061802-1.177298 0-2.247568-.8494419-2.56865-2.1236047-.642162-3.1854072-3.531893-5.4151922-6.742704-5.4151922-3.210812 0-5.993516 2.229785-6.742705 5.3090119-.321081 1.2741629-1.498379 2.1236048-2.889731 2.0174245h-12.076431c.909866 2.2670763 1.407717 4.761391 1.407717 7.3792659 0 10.3996814-8.394865 18.8494225-18.727008 18.8494225-.107626 0-.215253 0-.538132 0h-5.596577c-1.506771 0-2.690662-1.1916302-2.690662-2.7082504s1.183891-2.7082503 2.690662-2.7082503h5.273697.538133.538132c7.318601 0 13.345684-6.0664808 13.345684-13.4329218 0-7.3664409-6.027083-13.4329217-13.345684-13.4329217-.861012 0-1.82965.10833-2.798288.32499 0 0-.107627 0-.32288 0-.107626 0-.215253 0-.430506 0-.430506 0-.861012-.10833-1.291518-.43332-.538132-.4333201-.968638-1.0833002-1.076264-1.8416103-1.722024-12.4579516-12.377046-21.88266281-24.969344-21.88266281-13.991443 0-25.292224 11.48298151-25.292224 25.45755331 0 2.1666003.32288 4.4415306.861012 6.4998008.322879 1.5166202-.538132 2.9249104-1.937277 3.3582305-.215253.10833-.430506.10833-.645759.10833-1.183891 0-2.260156-.8666401-2.583035-2.0582703-.645759-2.5999203-.968639-5.1998407-.968639-7.908091 0-17.0078122 13.77619-30.87405401 30.673548-30.87405401.861012 0 1.722024 0 2.798289.10833002.753385.10833001 1.614397.21666002 2.583035.32499004.861012.10833001 1.614397.32499004 2.583036.54165007.861012.21666003 1.614397.43332005 2.475409.7583101 9.686383 3.46656045 17.220237 11.69964148 19.58802 22.09932288h1.076265c5.826012 0 10.864963 2.6866153 14.152062 6.8945314zm-63.056107 25.4316778c1.382199 0 2.658074 1.173479 2.658074 2.6669978 0 1.4935187-1.169552 2.6669977-2.658074 2.6669977h-37.744656c-.106323 0-.106323 0-.212646 0s-.212646 0-.318969 0c-10.207006 0-18.500198-8.321033-18.500198-18.5623043s8.293192-18.5623043 18.500198-18.5623043c1.594844 0 3.296012.2133598 4.890857.6400795 1.488521-1.9202384 3.189689-3.5204371 5.103502-4.9072759 1.807491-1.2801589 3.827628-2.346958 6.06041-3.0937174.212646-.1066799.531615-.1066799.850584-.1066799 1.80749-.4267196 3.827627-.7467594 5.847764-.7467594 1.488521 0 2.658074 1.1734791 2.658074 2.6669978s-1.169553 2.6669977-2.658074 2.6669977c-3.402336 0-6.592025.9601192-9.250099 2.6669978-.956907.5333995-1.807491 1.2801589-2.551752 2.0269183-2.551751 2.5603178-4.146596 5.7607151-4.678211 9.2811521-.212646 1.2801589-1.382198 2.2402781-2.658074 2.2402781-.106323 0-.318969 0-.425292 0-1.488522-.3200397-2.445429-1.6001986-2.232783-3.0937174.212646-1.6001986.744261-3.2003973 1.275876-4.693916-.744261-.1066799-1.594845-.2133598-2.445428-.2133598-7.229963 0-13.184049 5.9740749-13.184049 13.2283088s5.954086 13.2283088 13.184049 13.2283088h.212646.318969.531614zm21.448302.3796492c1.50286 0 2.683679 1.187449 2.683679 2.6987477 0 1.5112988-1.180819 2.6987478-2.683679 2.6987478h-10.842063c-1.50286 0-2.683679-1.187449-2.683679-2.6987478 0-1.5112987 1.180819-2.6987477 2.683679-2.6987477zm11.200398 4.8817035h-1.33792c-1.440838 0-2.572924-1.187449-2.572924-2.6987477 0-1.5112988 1.132086-2.6987478 2.572924-2.6987478h1.33792c1.440838 0 2.572924 1.187449 2.572924 2.6987478 0 1.5112987-1.132086 2.6987477-2.572924 2.6987477zm-359.17598 11.1127842c7.456334 0 13.507851 6.0603457 13.832039 13.7439984 0 7.4672117-6.051517 13.5275574-13.507851 13.5275574-.108062 0-.108062 0-.216125 0s-.108063 0-.216126 0h-2.917696c-1.512879 0-2.70157-1.190425-2.70157-2.705511 0-1.515087 1.188691-2.7055119 2.70157-2.7055119h2.593508.432251.216126c4.430575 0 8.10471-3.6794957 8.10471-8.1165345 0-4.4370389-3.674135-8.1165345-8.10471-8.1165345-.540314 0-1.080628.1082204-1.620943.2164409-.108062 0-.108062 0-.216125 0s-.108063 0-.216126 0-.216125 0-.324188 0-.108063 0-.216126 0c-.216125-.1082205-.324188-.1082205-.540314-.1082205-.324188-.1082204-.648377-.2164409-.864502-.4328818-.540314-.4328818-.972566-1.0822046-1.080628-1.8397478-1.188691-8.008314-7.996648-13.9604393-15.993296-13.9604393-8.8611498 0-16.1013579 7.2507708-16.1013579 16.1248485 0 1.406866.2161256 2.8137319.540314 4.1123775.3241885 1.5150864-.540314 2.9219524-1.9451305 3.3548342-.2161256.1082205-.4322512.1082205-.6483768.1082205-1.1886909 0-2.269319-.8657637-2.5935074-2.0561888-.540314-1.8397478-.7564396-3.6794956-.7564396-5.5192434 0-11.9042506 9.6175898-21.5358715 21.5044982-21.5358715.648377 0 1.296754 0 1.945131.1082204.216125 0 .432251.1082205.648377.1082205.432251.1082205.756439.1082205 1.188691.2164409.324188.1082205.540314.1082205.864502.2164409.324188.1082205.648377.1082205.972565.2164409.324189 0 .540314.1082205.864503.216441.324188.1082204.540314.2164409.864502.3246613.324189.1082205.648377.216441.972565.3246614.216126.1082205.540314.2164409.75644.3246614.324188.1082205.648377.2164409.972565.4328818.216126.1082205.432252.216441.648377.3246614.324189.1082205.648377.3246614.972565.5411023.108063.1082205.324189.2164409.432252.3246614.324188.2164409.648376.5411023.972565.7575432.108063 0 .216126.1082205.324188.2164409.324189.216441.75644.5411023 1.080628.8657637 0 0 .108063.1082205.108063.1082205 3.025759 2.7055115 5.187015 6.2767867 6.267643 10.2809437zm-36.5252287 21.9098054c1.5128793 0 2.809633 1.1795854 2.809633 2.6808754s-1.1886909 2.680875-2.7015702 2.680875h-26.5834504c-.1080628 0-.1080628 0-.2161256 0s-.1080628 0-.2161256 0c-7.4563337 0-13.5078508-6.0051604-13.5078508-13.404376s6.0515171-13.4043761 13.5078508-13.4043761c.9725652 0 2.0531933.107235 3.0257586.321705 1.080628-1.2868201 2.3773817-2.4664052 3.7821982-3.3242852 1.1886909-.8578801 2.4854446-1.5012902 3.890261-1.9302302.2161257-.107235.5403141-.107235.7564397-.107235 1.2967537-.321705 2.7015702-.5361751 4.1063866-.5361751 1.5128793 0 2.7015702 1.1795851 2.7015702 2.6808753 0 1.5012901-1.1886909 2.6808752-2.7015702 2.6808752-2.2693189 0-4.3225122.64341-6.1595799 1.9302301-.4322513.3217051-.8645025.6434101-1.1886909.9651151-1.5128793 1.6085251-2.5935074 3.6459903-2.9176958 5.7906905-.2161256 1.2868201-1.4048165 2.2519352-2.7015702 2.2519352-.1080628 0-.3241884 0-.4322512 0-1.5128793-.3217051-2.4854445-1.6085252-2.2693189-3.1098153.1080628-.7506451.3241884-1.5012901.540314-2.2519352-.2161256 0-.3241884 0-.540314 0-4.4305751 0-8.1047105 3.6459903-8.1047105 8.0426257 0 4.3966353 3.6741354 8.0426256 8.1047105 8.0426256h.3241884.4322512zm15.2636037-.035745c1.497901 0 2.674822 1.1874494 2.674822 2.6987474 0 1.511299-1.176921 2.698748-2.674822 2.698748h-5.4566365c-1.4979003 0-2.6748219-1.187449-2.6748219-2.698748 0-1.511298 1.1769216-2.6987474 2.6748219-2.6987474zm8.618277 0c1.512879 0 2.70157 1.1874494 2.70157 2.6987474 0 1.511299-1.188691 2.698748-2.70157 2.698748-1.51288 0-2.701571-1.187449-2.701571-2.698748 0-1.511298 1.188691-2.6987474 2.701571-2.6987474zm168.834363-25.5421092c1.474087 0 2.632299 1.187449 2.632299 2.6987477s-1.158212 2.6987477-2.632299 2.6987477h-15.267335c-1.474088 0-2.632299-1.187449-2.632299-2.6987477s1.158211-2.6987477 2.632299-2.6987477zm-85.70546-15.4788561c1.557375 0 2.781028 1.187449 2.781028 2.6987477s-1.223653 2.6987477-2.781028 2.6987477h-2.00234c-1.557376 0-2.781029-1.187449-2.781029-2.6987477s1.223653-2.6987477 2.781029-2.6987477zm-137.097929-46.4006178c-.6431055-3.10467504-3.5370801-5.35288802-6.6454233-5.35288802-3.2155274 0-6.0023179 2.24821298-6.7526076 5.35288802-.3215527 1.2846931-1.5005795 2.1411552-2.8939747 2.0340975h-12.9692939c-1.5005794 0-2.6796062-1.1776354-2.6796062-2.676444 0-1.4988087 1.1790268-2.67644407 2.6796062-2.67644407h11.1471617c1.8221322-4.49642595 6.2166864-7.49404325 11.254346-7.49404325 4.9304754 0 9.3250295 3.10467507 11.2543459 7.49404325h26.9032461c1.5005795 0 2.6796062 1.17763537 2.6796062 2.67644407 0 1.4988086-1.1790267 2.676444-2.6796062 2.676444-18.7929713 0-28.189457 0-28.189457 0-.1071843.1070577-.3215528.1070577-.5359213.1070577-1.1790267 0-2.2508691-.8564621-2.5724219-2.1411552zm39.7922145 2.1411552c-1.4408374 0-2.5729239-1.187449-2.5729239-2.6987477 0-1.51129871 1.1320865-2.69874771 2.5729239-2.69874771h1.3379205c1.440837 0 2.572924 1.187449 2.572924 2.69874771 0 1.5112987-1.132087 2.6987477-2.572924 2.6987477zm303.1172715 158.4603913c1.935509 0 3.548433 1.501168 3.333376 3.431242v11.902118c0 1.930074-1.505395 3.431242-3.440904 3.431242h-11.720581v115.697173h4.086074c1.505396 0 2.688207 1.179489 2.688207 2.680657v36.135262c0 1.501168-1.182811 2.680657-2.688207 2.680657h-13.441033c-1.505395 0-2.688206-1.179489-2.688206-2.680657v-25.090953h-37.74242-7.41945v22.517522c0 1.501168-1.182811 2.680657-2.688207 2.680657s-2.688207-1.179489-2.688207-2.680657v-22.517522h-102.474434v22.517522c0 1.501168-1.182811 2.680657-2.688206 2.680657-1.505396 0-2.688207-1.179489-2.688207-2.680657v-22.517522h-7.41945-44.516701v25.090953c0 1.501168-1.182811 2.680657-2.688206 2.680657h-13.441033c-1.505396 0-2.688207-1.179489-2.688207-2.680657v-37.850882c0-1.501169 1.182811-2.680658 2.688207-2.680658h4.086074v-113.981552h-11.720581c-1.935509 0-3.440904-1.501168-3.440904-3.431242v-11.902118c0-1.930074 1.505395-3.431242 3.440904-3.431242zm-239.572969 170.597037v-32.489568h-8.06462v32.489568zm166.238694-27.771611h9.139902v-4.717957h-122.689747v4.717957h5.698998zm-107.743319-43.212197c.430113-.214453.860226-.428905 1.505396-.536132h7.41945v-5.682993c0-1.501168 1.182811-2.680658 2.688206-2.680658 1.505396 0 2.688207 1.17949 2.688207 2.680658v5.682993h31.720837v-65.193587h-85.592497v85.459357h38.495118v-17.477886c0-.214453 0-.321679 0-.536131 0-.107227.107529-.214453.107529-.428906.107528-.214452.107528-.321679.215056-.536131.107528-.214453.215057-.321679.537641-.536132.107529-.107226.107529-.107226.215057-.214452zm25.054085 5.039636c-8.387204-.107227-16.666881-.107227-20.752955-.107227v14.797229h102.474435v-14.797229h-58.280319c-1.290339.107227-3.333376.107227-7.204393.107227-4.408659 0-10.322713 0-16.236768 0zm71.613823 20.051317h-82.259121v8.041972h82.259121zm74.086973 45.892855v-30.773947h-8.06462v30.773947zm-10.752826-36.135262h3.978545v-115.697173h-223.873842v113.981552h4.086074c1.505395 0 2.688206 1.179489 2.688206 2.680658v7.398614h41.828494v-7.398614c0-1.501169 1.182811-2.680658 2.688207-2.680658h17.527107v-8.041972h-7.41945-43.226362c-1.82798 0-3.333376-1.501168-3.333376-3.324015v-89.533957c0-1.822847 1.505396-3.324015 3.333376-3.324015h89.893628c1.82798 0 3.333376 1.501168 3.333376 3.324015v67.338114h45.16187v-5.682994c0-1.501168 1.182811-2.680657 2.688207-2.680657 1.505395 0 2.688206 1.179489 2.688206 2.680657v5.682994h7.41945c1.505396 0 2.688207 1.179489 2.688207 2.680657v20.158544c0 1.501168-1.182811 2.680657-2.688207 2.680657h-7.41945v8.041972h17.527107c1.505396 0 2.688206 1.179489 2.688206 2.680658v7.398614h35.054214v-5.682994c0-1.501168 1.182811-2.680657 2.688207-2.680657zm19.247559-121.058488v-8.041972h-254.196813v8.041972zm68.521805 114.76135 3.125852 43.821362c0 .749999-.323364 1.499998-.754516 2.035712-.431152.535713-1.185668.857141-1.940184.857141h-20.156352c-.754516 0-1.401244-.321428-1.940184-.857141-.53894-.535714-.862304-1.285713-.754516-2.035712l3.341427-43.821362c.107788-1.392855 1.293456-2.464282 2.6947-2.464282h4.095943v-133.392657c0-4.928564-9.808706-11.678554-26.515843-18.107116-.215576.749999-.646728 1.285713-1.293456 1.607141-.431152.214285-.862304.321428-1.293456.321428-.215576 0-.53894 0-.754516-.107143l-42.468465-13.071409c-1.509032-.428571-2.263548-1.928568-1.832396-3.321423l.646728-2.249997c2.263548-7.499989 21.342021-4.285708 23.282204-3.642852l15.198106 4.499993c3.341427 1.071427 6.036127 3.214281 7.652947 6.214277.646728 1.285712 1.07788 2.571425 1.293456 3.96428 21.234232 8.142845 31.581878 15.964261 31.581878 23.892821v133.392657h4.095944c1.401244 0 2.586911 1.071427 2.694699 2.464282zm-79.978683-169.392603 36.432338 11.14284c-.215576-2.999995-2.263547-5.678563-5.281611-6.535704l-15.198105-4.499993c-4.634884-1.392855-13.257922-1.17857-15.952622-.107143zm63.271546 210.642541h14.335802l-2.910276-38.464228h-8.51525zm-105.366153-92.447341-33.391408-33.511015c-1.080628-.9729-1.080628-2.702501 0-3.783501.972566-1.081001 2.70157-1.081001 3.782199 0l33.49947 33.511014c1.080628.972901 1.080628 2.702502 0 3.783502-.540314.5405-1.188691.7567-1.945131.7567s-1.404816-.2162-1.94513-.7567zm-25.935074 1.079036-21.504499-21.633248c-1.080628-.973497-1.080628-2.704156 0-3.785819.972566-1.081662 2.701571-1.081662 3.782199 0l21.612561 21.633248c1.080628.973497 1.080628 2.704156 0 3.785819-.540314.540831-1.188691.757163-1.945131.757163-.756439 0-1.404816-.216332-1.94513-.757163zm36.739491-22.565698-23.729102-23.862612c-1.192417-1.073817-1.192417-2.982826 0-4.175957 1.073176-1.19313 2.981043-1.19313 4.17346 0l23.848344 23.862612c1.192417 1.073817 1.192417 2.982826 0 4.175957-.596209.596565-1.311659.835191-2.146351.835191s-1.550142-.238626-2.146351-.835191zm239.43892 79.094422c3.12989 0 5.720143 2.579741 5.612216 5.696929v27.624735c0 2.687231-2.266472 4.944505-4.964652 4.944505h-3.345744c-.107927 1.719828-1.510981 3.117188-3.345744 3.117188-1.726835 0-3.237816-1.39736-3.345744-3.117188h-30.759257c-.323781 0-.647563-.107489-.971345-.214978-.431709.107489-.863417.214978-1.295126.214978h-2.050617c-.107928 1.719828-1.618909 3.117188-3.345744 3.117188-1.726836 0-3.237817-1.39736-3.345744-3.117188h-18.131773c-.107927 1.719828-1.618908 3.117188-3.345743 3.117188-1.726836 0-3.237817-1.39736-3.345744-3.117188h-2.050617c-2.698181 0-4.964652-2.257274-4.964652-4.944505v-36.546341c0-6.019398 4.856724-10.856414 10.900649-10.856414h2.374398v-5.911908h-.539636c-1.510981 0-2.69818-1.182382-2.69818-2.687231v-6.556844c0-2.687231 2.266472-4.944505 4.964652-4.944505h15.433592c2.698181 0 4.964652 2.257274 4.964652 4.944505v6.556844c0 1.504849-1.187199 2.687231-2.69818 2.687231h-.539636v5.911908h2.806107c6.043925 0 10.900649 4.837016 10.900649 10.856414v3.224677h5.504289v-4.192081c0-2.687231 2.266471-4.944505 4.964652-4.944505h8.52625c2.69818 0 4.964652 2.257274 4.964652 4.944505v4.192081zm.323782 5.696929c0-.107489-.107927-.322467-.323782-.322467h-3.345743v.322467c0 2.257275 1.510981 4.192081 3.669525 4.837016zm-26.658023-9.566542v3.869613h7.77076v-3.869613zm17.592137 9.244075h-28.384859v27.517245h28.276932c.215854-5.051994 4.209161-9.136585 9.173813-9.781521v-6.9868c-5.072579-.752425-9.065886-5.159484-9.065886-10.426457zm-58.820334-34.289068v3.439656h14.570174v-3.439656zm3.129889 8.814118v5.911908h8.202469v-5.911908zm-7.662832 11.393859c-3.021962 0-5.504288 2.472253-5.504288 5.481952v36.116384h5.504288v-13.328665c0-1.50485 1.187199-2.687232 2.69818-2.687232s2.698181 1.182382 2.698181 2.687232v13.328665h3.669525v-24.830014c0-1.50485 1.187199-2.687231 2.69818-2.687231 1.510982 0 2.698181 1.182381 2.698181 2.687231v24.830014h14.893956l.107927-30.204476v-5.911908c0-3.009699-2.482326-5.481952-5.504288-5.481952zm68.64171 41.598336h3.777453v-4.299569c-2.050617.429957-3.561598 2.149785-3.777453 4.299569zm-536.556834-151.806481c-20.3565207 0-36.9232636 16.372403-36.8149842 36.514767 0 3.123682.4331174 6.355078 1.191073 9.371047.3248381 1.507984-.5413968 2.908255-1.9490286 3.339108-.2165587.107713-.4331174.107713-.6496762.107713-1.191073 0-2.2738667-.861705-2.5987047-2.04655-.5413969-1.723411-.866235-3.446822-1.0827937-5.277946-5.19740954 4.954806-8.22923177 12.063876-8.22923177 19.711511 0 12.494729 8.12095237 23.266047 19.16544767 25.74345 1.4076317.323139 2.382146 1.831124 2.0573079 3.231395-.2165587 1.292558-1.2993523 2.154263-2.5987047 2.154263-.1082794 0-.3248381-.107713-.5413969-.107713-13.6432-2.908255-23.6049016-15.94155-23.6049016-30.913681 0-10.771318 4.98085081-20.573217 13.3183619-26.389729.6496762-22.619767 19.3820064-40.823293 42.2289525-40.823293 21.0061969 0 39.0888509 15.61841 41.9041144 36.29934v.430853c4.222895 4.739379 7.362997 10.448178 9.095467 16.803255.974514 3.554535 1.515911 7.10907 1.515911 10.771318 0 1.507984-1.191073 2.692829-2.706984 2.692829s-2.706984-1.184845-2.706984-2.692829c0-3.123682-.433118-6.247364-1.299353-9.371046-3.898057-14.21814-15.9170665-24.774031-30.6430602-26.712868-1.4076318-.215427-2.4904254-1.507985-2.2738667-3.015969.2165587-1.400271 1.5159111-2.477403 3.0318222-2.261977 7.1464381.969419 13.6432001 3.662248 19.1654477 7.647636-4.8725714-14.756706-18.9488889-25.204884-34.974235-25.204884zm48.685888 67.368019c1.495235.21273 2.349655 1.59547 2.13605 3.19094-2.13605 10.530099-9.8258291 18.826541-20.2924731 21.698387-2.4564572.638187-4.806112.957281-7.2625693.957281-1.4952348 0-2.6700622-1.170011-2.6700622-2.659116s1.1748274-2.659116 2.6700622-2.659116c2.0292473-.106364 3.9516921-.319094 5.8741369-.850917 8.4373967-2.233657 14.7387435-9.040994 16.4475835-17.550166.213605-1.489105 1.602037-2.446387 3.097272-2.127293zm-31.4717019 56.895198c.7592173 0 1.409975.428357 1.952273.963804.5422981.535447.7592173 1.392162.6507577 2.141788l-4.8806825 28.592861c-.2169192 1.285073-1.4099749 2.248877-2.7114902 2.248877h-29.0671755c-1.409975 0-2.4945711-.963804-2.7114903-2.248877l-4.8806824-28.592861c-.1084597-.749626.1084596-1.499251.6507576-2.141788.5422981-.642536 1.3015153-.963804 2.0607326-.963804h17.0281588v-57.828259c-1.5184345-.321268-3.5791671-.749626-5.6398997-1.82052-3.7960864-1.927608-8.4598496-5.997004-8.4598496-14.457064 0-1.499252 1.1930557-2.677235 2.7114902-2.677235 1.5184346 0 2.7114903 1.177983 2.7114903 2.677235 0 7.710434 5.4229805 10.0664 8.7852284 10.816026v-20.989517c0-1.499251 1.1930557-2.677234 2.7114903-2.677234 1.5184345 0 2.7114902 1.177983 2.7114902 2.677234v33.090616c.1084596-.10709.3253788-.10709.5422981-.10709 1.0845961 0 10.845961-.428357 10.845961-10.601847 0-1.499252 1.1930557-2.677235 2.7114902-2.677235 1.5184346 0 2.7114903 1.177983 2.7114903 2.677235 0 8.245881-4.446844 12.208188-8.2429304 14.028707-3.904546 2.034698-7.7006323 2.034698-7.9175515 2.034698-.2169193 0-.4338385-.107089-.6507577-.107089v45.941339zm-35.5747521 5.247379 3.904546 23.238393h24.5118719l.6507576-3.641038h-14.9674262c-1.5184345 0-2.7114902-1.177983-2.7114902-2.677235 0-1.499251 1.1930557-2.677234 2.7114902-2.677234h15.9435627c.5061449-2.998502.7592173-4.497753.7592173-4.497753h-10.0867438c-1.5184345 0-2.7114902-1.177983-2.7114902-2.677235 0-1.499251 1.1930557-2.677234 2.7114902-2.677234h10.0867438c.3253788 0 .542298 0 .8676769.10709l.7592172-4.497754z" fill="#e5e5e5"/></svg>