<svg height="45" viewBox="0 0 45 45" width="45" xmlns="http://www.w3.org/2000/svg"><g fill="#f9253f"><path d="m12.742 20.563a1.37 1.37 0 0 0 -.19-.025.97.97 0 0 0 -.938 1.313.976.976 0 0 0 .878.625.767.767 0 0 0 .191-.014.968.968 0 0 0 .06-1.9zm4.245-1.605a1.068 1.068 0 0 0 -.38-.014.993.993 0 0 0 -.727.56.966.966 0 0 0 .488 1.281.867.867 0 0 0 .369.087.767.767 0 0 0 .19-.014.972.972 0 0 0 .237-1.84.778.778 0 0 0 -.177-.06zm3.623.223a1.025 1.025 0 0 0 .369.086.935.935 0 0 0 .373-.064.97.97 0 0 0 -.503-1.862.988.988 0 0 0 -.726.559.966.966 0 0 0 .487 1.281z"/><path d="m21.94 8.184a1.018 1.018 0 0 0 -1.314-.59v-.001l-4.327 1.647a1.017 1.017 0 0 0 -.596.602 3.35 3.35 0 0 1 -1.95 1.998 3.347 3.347 0 0 1 -2.782-.198c-.26-.14-.57-.162-.847-.057l-4.327 1.645a1.017 1.017 0 0 0 -.59 1.311l8.981 23.63a1.017 1.017 0 0 0 1.314.592l4.327-1.648c.276-.105.493-.324.594-.602a3.348 3.348 0 0 1 1.952-1.997 3.356 3.356 0 0 1 2.783.195c.26.141.57.162.847.057l4.326-1.647a1.012 1.012 0 0 0 .59-1.309zm6.715 23.403-2.96 1.136a5.385 5.385 0 0 0 -4.037-.097 5.376 5.376 0 0 0 -2.96 2.756l-2.961 1.136-8.275-21.748 2.96-1.136a5.385 5.385 0 0 0 4.037.1 5.36 5.36 0 0 0 2.96-2.757l2.961-1.136 8.275 21.745zm10.159-16.467a.995.995 0 0 0 -.406-.642l-3.267-2.309a.995.995 0 0 0 -.813-.152 2.753 2.753 0 0 1 -2.278-.415 2.741 2.741 0 0 1 -1.152-2.005.997.997 0 0 0 -.416-.718l-3.268-2.304a.994.994 0 0 0 -1.382.227l-1.847 2.513.847 2.227 2.05-2.783 2.113 1.49a4.729 4.729 0 0 0 5.351 3.779l2.109 1.49-6.563 9.316.851 2.238 7.91-11.224c.144-.213.202-.473.16-.727z"/><path d="m26.783 3.6-.838-2.273a.356.356 0 0 0 -.668.245l.56 1.516c-1.798-1.069-3.392-1.457-4.74-1.456a6.723 6.723 0 0 0 -3.648 1.063c-.831.532-1.267 1.062-1.284 1.082a.354.354 0 1 0 .551.45l.002-.003c.032-.039.442-.515 1.185-.976a6.005 6.005 0 0 1 3.194-.906c1.215 0 2.679.345 4.39 1.364l-1.49.56a.354.354 0 1 0 .252.665l2.326-.876a.355.355 0 0 0 .208-.455zm-9.966 37.169.839 2.274a.356.356 0 0 0 .667-.246l-.559-1.516c1.797 1.069 3.391 1.457 4.74 1.456a6.723 6.723 0 0 0 3.648-1.063c.831-.532 1.267-1.062 1.284-1.082a.354.354 0 1 0 -.551-.449l-.002.002c-.033.039-.443.515-1.186.976a6.005 6.005 0 0 1 -3.193.907c-1.215 0-2.68-.346-4.39-1.365l1.489-.56a.354.354 0 1 0 -.251-.665l-2.327.877a.355.355 0 0 0 -.208.454z" stroke="#f9253f" stroke-width=".5"/></g></svg>