<svg height="45" viewBox="0 0 45 45" width="45" xmlns="http://www.w3.org/2000/svg"><g fill="#f9253f" stroke="#f9253f" transform="translate(3)"><path d="m16.615 18c-.81-1.904-1.51-3.548-1.05-6.29.834-4.971 9.477-10.596 18.936-10.115l.079-1.565c-10.417-.52-19.613 5.71-20.572 11.422-.535 3.191.324 5.207 1.154 7.158.626 1.47 1.274 2.989 1.379 5.13.167 3.365-10.058 8.753-16.541 11.358l.591 1.451c1.823-.731 17.8-7.314 17.527-12.886-.12-2.419-.854-4.143-1.503-5.664zm22.988 10.96c-.326-4.345-2.618-8.53-5.803-10.662-5.57-3.729-6.009-5.715-4.832-7.711 2.708-4.595 9.713-4.662 9.713-4.662v-1.566s-7.905.062-11.073 5.437c-2.332 3.957 1.251 7.05 5.362 9.802 2.799 1.873 4.795 5.593 5.087 9.478.258 3.44-.64 8.64-6.386 13.872l1.065 1.155c6.211-5.656 7.152-11.357 6.867-15.144z" stroke-width=".5"/><path d="m.469 34.566c.007-.002.712-.175 1.7-.628l.66 1.422c-1.14.523-1.958.72-1.993.729l-.366-1.523zm5.236-21.04 1.373-.768c.659 1.157 1.35 2.405 1.938 3.804l-1.455.603c-.554-1.32-1.222-2.521-1.856-3.638zm-.515-7.837a3.795 3.795 0 0 0 -.347 1.585c0 .571.126 1.187.385 1.883l-1.48.543c-.324-.873-.482-1.666-.482-2.426 0-.77.158-1.496.485-2.222l1.44.637zm.255 26.088a10.472 10.472 0 0 0 2.318-3.1l1.419.682a12.014 12.014 0 0 1 -2.662 3.563zm4.794-11.042a17.085 17.085 0 0 1 .223 2.742c0 .551-.029 1.096-.084 1.624l-1.569-.164c.05-.472.075-.964.075-1.46a15.586 15.586 0 0 0 -.202-2.492zm-1.918-20.358.883 1.297c-.564.379-1.08.757-1.531 1.121l-.995-1.214c.488-.395 1.04-.8 1.643-1.204z" stroke-width=".2" transform="translate(16.765 5.294)"/></g></svg>